<svg width="221" height="212" viewBox="0 0 221 212" fill="none" xmlns="http://www.w3.org/2000/svg">
<path d="M76.3139 147.451C76.4659 146.868 77.1359 146.491 77.7959 146.669L87.8469 149.399C88.5069 149.573 88.9329 150.125 88.7879 150.68C88.6449 151.224 87.9989 151.55 87.3359 151.378L77.2389 148.826C76.5779 148.662 76.1569 148.048 76.3139 147.451Z" fill="url(#paint0_radial_2_700)"/>
<path d="M75.7729 149.594C75.9209 149.004 76.5779 148.662 77.2389 148.826L87.3359 151.378C87.9969 151.549 88.4199 152.132 88.2819 152.687C88.1479 153.242 87.4999 153.567 86.8369 153.406L76.7139 150.948C76.0519 150.789 75.6309 150.184 75.7729 149.594Z" fill="url(#paint1_radial_2_700)"/>
<path d="M75.2558 151.728C75.3988 151.134 76.0518 150.789 76.7128 150.949L86.8358 153.407C87.4988 153.567 87.9249 154.154 87.7909 154.713C87.6599 155.272 87.0158 155.6 86.3508 155.45L76.2099 153.076C75.5459 152.918 75.1178 152.314 75.2558 151.728Z" fill="url(#paint2_radial_2_700)"/>
<path d="M74.7599 153.854C74.8959 153.267 75.5459 152.918 76.2099 153.075L86.3509 155.449C87.0159 155.606 87.4469 156.186 87.3159 156.748C87.1829 157.306 86.5449 157.645 85.8769 157.492L75.7189 155.191C75.0539 155.044 74.6209 154.444 74.7599 153.854Z" fill="url(#paint3_radial_2_700)"/>
<path d="M74.2799 155.99C74.4089 155.4 75.0549 155.044 75.7199 155.191L85.8779 157.492C86.5449 157.645 86.9809 158.225 86.8559 158.79C86.7299 159.349 86.0899 159.687 85.4229 159.544L75.2489 157.32C74.5819 157.171 74.1479 156.577 74.2799 155.99Z" fill="url(#paint4_radial_2_700)"/>
<path d="M73.8089 158.12C73.9329 157.53 74.5819 157.171 75.2489 157.321L85.4229 159.545C86.0919 159.688 86.5249 160.264 86.4059 160.837C86.2889 161.399 85.6519 161.745 84.9829 161.602L74.7939 159.444C74.1249 159.307 73.6849 158.714 73.8089 158.12Z" fill="url(#paint5_radial_2_700)"/>
<path d="M73.3599 160.257C73.4839 159.67 74.1239 159.3 74.7929 159.444L84.9819 161.602C85.6509 161.745 86.0959 162.318 85.9749 162.883C85.8559 163.452 85.2169 163.801 84.5489 163.658L74.3459 161.577C73.6779 161.437 73.2379 160.85 73.3599 160.257Z" fill="url(#paint6_radial_2_700)"/>
<path d="M72.9219 162.394C73.0409 161.807 73.6759 161.434 74.3469 161.577L84.5499 163.658C85.2169 163.801 85.6689 164.367 85.5569 164.936C85.4449 165.502 84.8129 165.858 84.1429 165.725L73.9239 163.714C73.2519 163.577 72.8069 162.987 72.9219 162.394Z" fill="url(#paint7_radial_2_700)"/>
<path d="M72.5 164.537C72.619 163.943 73.2519 163.577 73.9239 163.713L84.143 165.724C84.813 165.857 85.2619 166.419 85.1499 166.988C85.0399 167.557 84.4049 167.91 83.7359 167.787L73.503 165.842C72.833 165.714 72.383 165.131 72.5 164.537Z" fill="url(#paint8_radial_2_700)"/>
<path d="M72.0969 166.688C72.2029 166.094 72.8349 165.714 73.5039 165.843L83.7369 167.788C84.4069 167.91 84.8659 168.476 84.7629 169.049C84.6579 169.615 84.0299 169.974 83.3599 169.859L73.1149 167.984C72.4399 167.864 71.9859 167.281 72.0969 166.688Z" fill="url(#paint9_radial_2_700)"/>
<path d="M71.7019 168.832C71.8099 168.246 72.4409 167.865 73.1139 167.984L83.3589 169.859C84.0289 169.978 84.4879 170.536 84.3849 171.109C84.2819 171.675 83.6499 172.041 82.9809 171.922L72.7199 170.127C72.0479 170.005 71.5919 169.432 71.7019 168.832Z" fill="url(#paint10_radial_2_700)"/>
<path d="M71.3259 170.989C71.4239 170.395 72.0509 170.004 72.7209 170.126L82.9819 171.921C83.6519 172.04 84.1219 172.595 84.0259 173.164C83.9299 173.733 83.3089 174.103 82.6349 173.991L72.3619 172.273C71.6899 172.159 71.2249 171.583 71.3259 170.989Z" fill="url(#paint11_radial_2_700)"/>
<path d="M70.9639 173.147C71.0629 172.553 71.6899 172.159 72.3619 172.274L82.6349 173.992C83.3089 174.104 83.7769 174.659 83.6829 175.224C83.5869 175.793 82.9649 176.174 82.2899 176.059L72.0029 174.422C71.3299 174.316 70.8659 173.747 70.9639 173.147Z" fill="url(#paint12_radial_2_700)"/>
<path d="M70.6179 175.305C70.7069 174.708 71.3279 174.317 72.0019 174.422L82.2889 176.059C82.9609 176.174 83.4339 176.715 83.3499 177.288C83.2649 177.857 82.6499 178.238 81.9739 178.133L71.6769 176.579C71.0019 176.471 70.5269 175.905 70.6179 175.305Z" fill="url(#paint13_radial_2_700)"/>
<path d="M70.2929 177.476C70.3839 176.879 71.0019 176.471 71.6769 176.579L81.9739 178.133C82.6499 178.241 83.1279 178.782 83.0429 179.355C82.9559 179.921 82.3409 180.304 81.6639 180.21L71.3539 178.733C70.6789 178.635 70.2059 178.077 70.2929 177.476Z" fill="url(#paint14_radial_2_700)"/>
<path d="M69.9769 179.648C70.0519 179.044 70.6839 178.635 71.3539 178.733L81.6639 180.21C82.3429 180.311 82.8109 180.849 82.7389 181.418C82.6659 181.984 82.0579 182.375 81.3829 182.281L71.0589 180.898C70.3839 180.81 69.8989 180.252 69.9769 179.648Z" fill="url(#paint15_radial_2_700)"/>
<path d="M69.6939 181.826C69.7729 181.225 70.3839 180.807 71.0589 180.897L81.3829 182.28C82.0589 182.374 82.5469 182.908 82.4719 183.477C82.3989 184.046 81.7899 184.444 81.1139 184.353L70.7779 183.065C70.1009 182.982 69.6139 182.427 69.6939 181.826Z" fill="url(#paint16_radial_2_700)"/>
<path d="M69.412 184.005C69.491 183.398 70.102 182.982 70.779 183.066L81.115 184.354C81.791 184.445 82.2789 184.972 82.2039 185.541C82.1319 186.113 81.5429 186.512 80.8619 186.431L70.514 185.237C69.839 185.164 69.335 184.606 69.412 184.005Z" fill="url(#paint17_radial_2_700)"/>
<path d="M69.1689 186.194C69.2349 185.587 69.8379 185.164 70.5129 185.237L80.8609 186.431C81.5379 186.511 82.0379 187.038 81.9759 187.604C81.9149 188.173 81.3149 188.578 80.6389 188.508L70.2789 187.419C69.5999 187.349 69.1039 186.798 69.1689 186.194Z" fill="url(#paint18_radial_2_700)"/>
<path d="M68.9329 188.383C68.9979 187.776 69.5999 187.343 70.2789 187.419L80.6389 188.508C81.3149 188.578 81.8169 189.098 81.7559 189.667C81.6949 190.236 81.0929 190.644 80.4149 190.578L70.0459 189.597C69.3659 189.532 68.8689 188.991 68.9329 188.383Z" fill="url(#paint19_radial_2_700)"/>
<path d="M68.7259 190.582C68.7799 189.971 69.3679 189.531 70.0469 189.597L80.4159 190.578C81.0949 190.644 81.6079 191.161 81.5609 191.73C81.5159 192.292 80.9279 192.711 80.2469 192.652L69.8669 191.786C69.1899 191.735 68.6769 191.19 68.7259 190.582Z" fill="url(#paint20_radial_2_700)"/>
<path d="M68.546 192.785C68.597 192.178 69.19 191.731 69.867 191.786L80.247 192.652C80.928 192.711 81.439 193.214 81.394 193.787C81.347 194.353 80.759 194.772 80.078 194.73L69.689 193.983C69.008 193.927 68.495 193.4 68.546 192.785Z" fill="url(#paint21_radial_2_700)"/>
<path d="M68.3779 194.992C68.4059 194.381 69.0139 193.927 69.6889 193.983L80.0779 194.73C80.7639 194.772 81.2599 195.275 81.2369 195.844C81.2059 196.406 80.6299 196.832 79.9489 196.79L69.5519 196.179C68.8689 196.141 68.3449 195.61 68.3779 194.992Z" fill="url(#paint22_radial_2_700)"/>
<path d="M68.2589 197.22C68.2899 196.605 68.8679 196.141 69.5509 196.18L79.9479 196.791C80.6289 196.833 81.1579 197.328 81.1259 197.891C81.0959 198.46 80.5199 198.893 79.8379 198.862L69.4339 198.387C68.7529 198.354 68.2259 197.831 68.2589 197.22Z" fill="url(#paint23_radial_2_700)"/>
<path d="M68.1429 199.443C68.1759 198.825 68.7539 198.354 69.4349 198.385L79.8389 198.86C80.5209 198.891 81.0509 199.373 81.0189 199.946C80.9819 200.508 80.4409 200.945 79.7529 200.923L69.3419 200.591C68.6639 200.575 68.1039 200.054 68.1429 199.443Z" fill="url(#paint24_radial_2_700)"/>
<path d="M68.0869 201.675C68.0969 201.057 68.6609 200.568 69.3419 200.593L79.7529 200.925C80.4349 200.949 80.9779 201.421 80.9699 201.983C80.9579 202.545 80.3969 202.992 79.7129 202.978L69.2999 202.817C68.6169 202.809 68.0749 202.296 68.0869 201.675Z" fill="url(#paint25_radial_2_700)"/>
<path d="M68.0459 203.919C68.0549 203.298 68.6169 202.802 69.2989 202.816L79.7119 202.977C80.3959 202.994 80.9389 203.455 80.9309 204.017C80.9189 204.579 80.3549 205.033 79.6739 205.037H69.2569C68.5769 205.037 68.0319 204.537 68.0459 203.919Z" fill="url(#paint26_radial_2_700)"/>
<path d="M131.798 150.68C131.653 150.125 132.079 149.573 132.739 149.399L142.79 146.669C143.446 146.491 144.12 146.868 144.272 147.451C144.429 148.055 144.007 148.662 143.347 148.826L133.247 151.378C132.589 151.55 131.938 151.225 131.798 150.68Z" fill="url(#paint27_radial_2_700)"/>
<path d="M132.303 152.688C132.167 152.133 132.589 151.55 133.248 151.379L143.348 148.827C144.008 148.663 144.668 149.005 144.815 149.595C144.957 150.185 144.536 150.789 143.872 150.95L133.749 153.408C133.086 153.568 132.439 153.243 132.303 152.688Z" fill="url(#paint28_radial_2_700)"/>
<path d="M132.795 154.713C132.659 154.155 133.086 153.568 133.748 153.407L143.871 150.949C144.534 150.789 145.187 151.134 145.33 151.728C145.47 152.314 145.04 152.919 144.375 153.076L134.234 155.45C133.57 155.6 132.928 155.271 132.795 154.713Z" fill="url(#paint29_radial_2_700)"/>
<path d="M133.268 156.748C133.137 156.186 133.57 155.606 134.235 155.449L144.376 153.075C145.041 152.918 145.689 153.267 145.829 153.854C145.967 154.444 145.534 155.044 144.867 155.191L134.709 157.492C134.043 157.645 133.402 157.307 133.268 156.748Z" fill="url(#paint30_radial_2_700)"/>
<path d="M133.729 158.79C133.604 158.224 134.041 157.645 134.708 157.492L144.866 155.191C145.533 155.044 146.177 155.401 146.308 155.99C146.437 156.577 146.004 157.17 145.337 157.32L135.161 159.544C134.495 159.688 133.855 159.349 133.729 158.79Z" fill="url(#paint31_radial_2_700)"/>
<path d="M134.179 160.836C134.062 160.264 134.493 159.687 135.162 159.544L145.338 157.32C146.003 157.17 146.654 157.53 146.778 158.119C146.902 158.713 146.46 159.306 145.792 159.443L135.604 161.601C134.935 161.744 134.298 161.398 134.179 160.836Z" fill="url(#paint32_radial_2_700)"/>
<path d="M134.61 162.883C134.491 162.317 134.935 161.745 135.603 161.602L145.791 159.444C146.46 159.308 147.101 159.671 147.224 160.257C147.35 160.851 146.907 161.437 146.239 161.577L136.036 163.658C135.366 163.801 134.731 163.452 134.61 162.883Z" fill="url(#paint33_radial_2_700)"/>
<path d="M135.029 164.935C134.919 164.366 135.368 163.8 136.036 163.657L146.239 161.576C146.909 161.433 147.547 161.807 147.662 162.4C147.779 162.987 147.33 163.577 146.662 163.713L136.443 165.724C135.775 165.857 135.143 165.501 135.029 164.935Z" fill="url(#paint34_radial_2_700)"/>
<path d="M135.436 166.988C135.322 166.419 135.775 165.857 136.443 165.724L146.662 163.713C147.33 163.577 147.969 163.944 148.086 164.537C148.202 165.13 147.753 165.714 147.081 165.843L136.85 167.788C136.182 167.91 135.546 167.557 135.436 166.988Z" fill="url(#paint35_radial_2_700)"/>
<path d="M135.822 169.048C135.719 168.475 136.18 167.91 136.85 167.787L147.081 165.842C147.751 165.713 148.383 166.093 148.491 166.687C148.599 167.281 148.143 167.864 147.472 167.982L137.228 169.857C136.557 169.973 135.928 169.614 135.822 169.048Z" fill="url(#paint36_radial_2_700)"/>
<path d="M136.199 171.108C136.096 170.535 136.557 169.977 137.229 169.858L147.473 167.983C148.145 167.864 148.777 168.245 148.885 168.831C148.993 169.432 148.537 170.004 147.864 170.126L137.605 171.921C136.936 172.04 136.305 171.674 136.199 171.108Z" fill="url(#paint37_radial_2_700)"/>
<path d="M136.56 173.164C136.466 172.595 136.934 172.04 137.604 171.921L147.863 170.126C148.535 170.004 149.16 170.395 149.26 170.989C149.359 171.582 148.897 172.158 148.221 172.273L137.951 173.991C137.278 174.104 136.655 173.733 136.56 173.164Z" fill="url(#paint38_radial_2_700)"/>
<path d="M136.904 175.224C136.81 174.658 137.278 174.104 137.951 173.992L148.221 172.274C148.897 172.159 149.523 172.554 149.623 173.147C149.721 173.747 149.257 174.316 148.583 174.421L138.298 176.058C137.622 176.174 137 175.793 136.904 175.224Z" fill="url(#paint39_radial_2_700)"/>
<path d="M137.234 177.288C137.15 176.715 137.625 176.174 138.297 176.059L148.582 174.422C149.258 174.317 149.879 174.708 149.966 175.305C150.059 175.906 149.584 176.471 148.908 176.579L138.612 178.133C137.936 178.237 137.32 177.857 137.234 177.288Z" fill="url(#paint40_radial_2_700)"/>
<path d="M137.543 179.354C137.459 178.781 137.936 178.24 138.613 178.132L148.909 176.578C149.585 176.47 150.202 176.878 150.293 177.475C150.38 178.076 149.905 178.634 149.23 178.732L138.918 180.209C138.245 180.304 137.628 179.92 137.543 179.354Z" fill="url(#paint41_radial_2_700)"/>
<path d="M137.845 181.418C137.775 180.849 138.243 180.311 138.919 180.21L149.231 178.733C149.904 178.635 150.533 179.044 150.608 179.648C150.688 180.252 150.203 180.811 149.528 180.898L139.204 182.281C138.528 182.374 137.918 181.984 137.845 181.418Z" fill="url(#paint42_radial_2_700)"/>
<path d="M138.114 183.478C138.039 182.909 138.528 182.375 139.203 182.281L149.527 180.898C150.202 180.808 150.813 181.226 150.894 181.827C150.971 182.428 150.483 182.983 149.808 183.067L139.472 184.355C138.795 184.445 138.187 184.047 138.114 183.478Z" fill="url(#paint43_radial_2_700)"/>
<path d="M138.379 185.541C138.307 184.972 138.794 184.445 139.472 184.354L149.808 183.066C150.483 182.982 151.096 183.398 151.175 184.005C151.252 184.606 150.747 185.164 150.07 185.237L139.725 186.431C139.042 186.512 138.454 186.114 138.379 185.541Z" fill="url(#paint44_radial_2_700)"/>
<path d="M138.608 187.604C138.547 187.038 139.048 186.511 139.725 186.431L150.07 185.237C150.749 185.164 151.351 185.586 151.418 186.194C151.482 186.798 150.985 187.349 150.306 187.42L139.948 188.509C139.27 188.579 138.669 188.174 138.608 187.604Z" fill="url(#paint45_radial_2_700)"/>
<path d="M138.83 189.668C138.769 189.099 139.27 188.579 139.947 188.509L150.305 187.42C150.984 187.343 151.586 187.776 151.651 188.384C151.716 188.991 151.222 189.533 150.539 189.599L140.168 190.58C139.493 190.645 138.891 190.237 138.83 189.668Z" fill="url(#paint46_radial_2_700)"/>
<path d="M139.023 191.731C138.976 191.162 139.491 190.645 140.168 190.579L150.539 189.598C151.216 189.532 151.808 189.972 151.857 190.583C151.91 191.19 151.398 191.735 150.717 191.787L140.339 192.653C139.659 192.712 139.071 192.293 139.023 191.731Z" fill="url(#paint47_radial_2_700)"/>
<path d="M139.193 193.788C139.146 193.216 139.659 192.713 140.34 192.653L150.718 191.787C151.399 191.731 151.99 192.178 152.039 192.786C152.09 193.401 151.578 193.928 150.897 193.984L140.509 194.731C139.828 194.772 139.24 194.353 139.193 193.788Z" fill="url(#paint48_radial_2_700)"/>
<path d="M139.35 195.844C139.327 195.275 139.823 194.772 140.509 194.73L150.897 193.983C151.574 193.927 152.18 194.381 152.21 194.992C152.241 195.61 151.716 196.141 151.035 196.179L140.638 196.79C139.956 196.832 139.381 196.406 139.35 195.844Z" fill="url(#paint49_radial_2_700)"/>
<path d="M139.458 197.89C139.428 197.328 139.955 196.832 140.638 196.79L151.035 196.179C151.716 196.14 152.294 196.605 152.327 197.219C152.359 197.83 151.833 198.354 151.151 198.385L140.747 198.86C140.066 198.892 139.489 198.459 139.458 197.89Z" fill="url(#paint50_radial_2_700)"/>
<path d="M139.57 199.946C139.537 199.373 140.066 198.891 140.747 198.86L151.151 198.385C151.833 198.354 152.411 198.825 152.444 199.443C152.48 200.054 151.918 200.574 151.245 200.592L140.834 200.924C140.144 200.945 139.603 200.508 139.57 199.946Z" fill="url(#paint51_radial_2_700)"/>
<path d="M139.619 201.982C139.607 201.42 140.153 200.949 140.834 200.924L151.245 200.592C151.924 200.568 152.49 201.056 152.5 201.674C152.512 202.295 151.97 202.808 151.287 202.816L140.872 202.977C140.189 202.991 139.627 202.544 139.619 201.982Z" fill="url(#paint52_radial_2_700)"/>
<path d="M139.657 204.017C139.645 203.455 140.189 202.994 140.872 202.977L151.287 202.816C151.969 202.802 152.532 203.298 152.542 203.919C152.554 204.537 152.008 205.036 151.327 205.036H140.91C140.228 205.033 139.666 204.579 139.657 204.017Z" fill="url(#paint53_radial_2_700)"/>
<path d="M196.679 43.085C196.702 42.254 197.272 41.58 197.955 41.58H208.371C209.05 41.573 209.586 42.411 209.56 43.455C209.541 44.492 208.949 45.302 208.256 45.256L197.859 44.662C197.187 44.621 196.667 43.912 196.679 43.085Z" fill="url(#paint54_radial_2_700)"/>
<path d="M196.512 46.09C196.573 45.266 197.179 44.624 197.86 44.662L208.257 45.256C208.938 45.291 209.428 46.164 209.348 47.201C209.287 48.241 208.606 49.013 207.934 48.932L197.589 47.731C196.904 47.648 196.465 46.925 196.512 46.09Z" fill="url(#paint55_radial_2_700)"/>
<path d="M196.17 49.086C196.273 48.262 196.908 47.654 197.589 47.731L207.934 48.932C208.611 49.005 209.056 49.903 208.924 50.936C208.788 51.969 208.063 52.702 207.4 52.58L197.141 50.779C196.459 50.661 196.063 49.907 196.17 49.086Z" fill="url(#paint56_radial_2_700)"/>
<path d="M195.66 52.054C195.807 51.237 196.466 50.668 197.14 50.779L207.399 52.58C208.071 52.696 208.473 53.617 208.28 54.644C208.048 55.663 207.318 56.355 206.656 56.198L196.521 53.803C195.857 53.639 195.471 52.857 195.66 52.054Z" fill="url(#paint57_radial_2_700)"/>
<path d="M194.958 54.976C195.192 54.183 195.845 53.646 196.522 53.803L206.657 56.198C207.312 56.345 207.696 57.304 207.406 58.307C207.125 59.313 206.362 59.958 205.709 59.766L195.731 56.781C195.078 56.582 194.731 55.775 194.958 54.976Z" fill="url(#paint58_radial_2_700)"/>
<path d="M194.09 57.86C194.373 57.081 195.08 56.589 195.731 56.781L205.709 59.766C206.365 59.958 206.671 60.925 206.324 61.906C205.99 62.898 205.198 63.505 204.559 63.271L194.771 59.706C194.132 59.469 193.825 58.639 194.09 57.86Z" fill="url(#paint59_radial_2_700)"/>
<path d="M193.062 60.681C193.362 59.913 194.139 59.483 194.771 59.707L204.559 63.272C205.212 63.506 205.414 64.476 205.036 65.447C204.662 66.421 203.823 66.976 203.189 66.7L193.628 62.57C193.01 62.297 192.767 61.456 193.062 60.681Z" fill="url(#paint60_radial_2_700)"/>
<path d="M191.873 63.449C192.213 62.695 192.999 62.297 193.627 62.569L203.188 66.699C203.815 66.964 203.977 67.945 203.546 68.902C203.134 69.858 202.216 70.34 201.621 70.037L192.316 65.355C191.697 65.038 191.549 64.211 191.873 63.449Z" fill="url(#paint61_radial_2_700)"/>
<path d="M190.529 66.138C190.904 65.405 191.704 65.056 192.317 65.356L201.622 70.038C202.233 70.342 202.345 71.34 201.868 72.269C201.358 73.177 200.452 73.627 199.866 73.285L190.852 68.072C190.26 67.719 190.124 66.864 190.529 66.138Z" fill="url(#paint62_radial_2_700)"/>
<path d="M189.016 68.742C189.461 68.044 190.25 67.723 190.851 68.072L199.865 73.285C200.45 73.616 200.534 74.636 199.979 75.519C199.417 76.395 198.497 76.8 197.931 76.423L189.234 70.69C188.665 70.313 188.567 69.441 189.016 68.742Z" fill="url(#paint63_radial_2_700)"/>
<path d="M187.352 71.256C187.846 70.586 188.663 70.32 189.234 70.69L197.931 76.423C198.504 76.793 198.518 77.813 197.903 78.654C197.299 79.502 196.367 79.858 195.822 79.447L187.47 73.226C186.926 72.813 186.872 71.93 187.352 71.256Z" fill="url(#paint64_radial_2_700)"/>
<path d="M185.55 73.665C186.063 73.016 186.926 72.82 187.47 73.225L195.822 79.446C196.375 79.858 196.299 80.846 195.656 81.667C195.333 82.079 194.935 82.365 194.554 82.477C194.159 82.596 193.786 82.554 193.526 82.338L185.55 75.635C185.29 75.418 185.166 75.09 185.173 74.741C185.172 74.377 185.296 73.997 185.55 73.665Z" fill="url(#paint65_radial_2_700)"/>
<path d="M183.618 75.98C184.159 75.348 185.025 75.201 185.55 75.634L193.526 82.337C194.05 82.766 193.924 83.765 193.24 84.547C192.566 85.347 191.554 85.546 191.07 85.085L183.494 77.938C182.991 77.46 183.087 76.615 183.618 75.98Z" fill="url(#paint66_radial_2_700)"/>
<path d="M181.556 78.179C182.127 77.578 182.995 77.47 183.494 77.938L191.07 85.085C191.569 85.549 191.389 86.541 190.67 87.288C189.916 88.015 188.928 88.193 188.462 87.69L181.314 80.117C180.848 79.614 180.958 78.749 181.556 78.179Z" fill="url(#paint67_radial_2_700)"/>
<path d="M179.359 80.239C179.996 79.705 180.836 79.614 181.314 80.117L188.462 87.69C188.925 88.179 188.722 89.188 187.93 89.862C187.142 90.546 186.147 90.675 185.713 90.148L179.015 82.167C178.578 81.646 178.732 80.784 179.359 80.239Z" fill="url(#paint68_radial_2_700)"/>
<path d="M177.047 82.173C177.377 81.915 177.757 81.792 178.115 81.792C178.464 81.785 178.794 81.908 179.014 82.166L185.712 90.147C185.932 90.405 185.974 90.782 185.859 91.177C185.737 91.554 185.456 91.956 185.045 92.273C184.226 92.919 183.235 92.999 182.826 92.441L176.599 84.093C176.201 83.552 176.395 82.686 177.047 82.173Z" fill="url(#paint69_radial_2_700)"/>
<path d="M174.635 83.971C175.309 83.489 176.191 83.548 176.601 84.093L182.828 92.441C183.238 92.985 182.884 93.925 182.034 94.522C181.193 95.143 180.175 95.123 179.801 94.55L174.072 85.857C173.699 85.288 173.968 84.467 174.635 83.971Z" fill="url(#paint70_radial_2_700)"/>
<path d="M172.125 85.633C172.82 85.193 173.691 85.287 174.071 85.856L179.8 94.549C180.181 95.118 179.774 96.033 178.898 96.595C178.02 97.161 176.995 97.07 176.662 96.487L171.446 87.472C171.103 86.873 171.425 86.084 172.125 85.633Z" fill="url(#paint71_radial_2_700)"/>
<path d="M169.518 87.149C170.241 86.747 171.098 86.884 171.445 87.474L176.661 96.489C177.005 97.072 176.554 97.983 175.645 98.49C174.718 98.965 173.72 98.857 173.416 98.246L168.734 88.938C168.431 88.329 168.782 87.526 169.518 87.149Z" fill="url(#paint72_radial_2_700)"/>
<path d="M166.827 88.493C167.592 88.168 168.419 88.322 168.735 88.936L173.417 98.244C173.722 98.837 173.237 99.756 172.28 100.168C171.33 100.601 170.342 100.437 170.075 99.812L165.945 90.256C165.68 89.624 166.071 88.831 166.827 88.493Z" fill="url(#paint73_radial_2_700)"/>
<path d="M164.063 89.683C164.836 89.393 165.674 89.63 165.945 90.255L170.075 99.811C170.353 100.443 169.799 101.284 168.823 101.658C167.851 102.035 166.882 101.829 166.646 101.183L163.085 91.393C162.859 90.762 163.293 89.987 164.063 89.683Z" fill="url(#paint74_radial_2_700)"/>
<path d="M161.237 90.717C162.019 90.448 162.848 90.756 163.085 91.395L166.646 101.185C166.883 101.82 166.276 102.609 165.288 102.948C164.303 103.294 163.333 102.99 163.139 102.33L160.157 92.355C159.966 91.698 160.457 90.993 161.237 90.717Z" fill="url(#paint75_radial_2_700)"/>
<path d="M158.357 91.583C159.151 91.353 159.959 91.698 160.159 92.354L163.141 102.329C163.342 102.989 162.69 103.743 161.685 104.029C160.683 104.319 159.726 103.931 159.576 103.278L157.179 93.143C157.025 92.466 157.564 91.813 158.357 91.583Z" fill="url(#paint76_radial_2_700)"/>
<path d="M155.431 92.281C156.236 92.093 157.022 92.484 157.178 93.143L159.575 103.278C159.732 103.945 159.041 104.668 158.023 104.905C156.998 105.09 156.073 104.692 155.96 104.018L154.162 93.761C154.048 93.091 154.616 92.431 155.431 92.281Z" fill="url(#paint77_radial_2_700)"/>
<path d="M152.463 92.79C153.287 92.685 154.039 93.083 154.162 93.761L155.96 104.018C156.079 104.682 155.349 105.408 154.317 105.544C153.284 105.673 152.385 105.233 152.308 104.556L151.112 94.208C151.037 93.531 151.643 92.895 152.463 92.79Z" fill="url(#paint78_radial_2_700)"/>
<path d="M149.47 93.129C150.301 93.091 151.029 93.524 151.112 94.208L152.308 104.556C152.392 105.226 151.62 105.904 150.582 105.973C149.543 106.046 148.672 105.558 148.636 104.88L148.039 94.48C148.005 93.796 148.646 93.192 149.47 93.129Z" fill="url(#paint79_radial_2_700)"/>
<path d="M146.461 93.3C147.29 93.286 147.996 93.81 148.038 94.48L148.635 104.88C148.679 105.571 147.87 106.161 146.83 106.182C145.79 106.21 144.95 105.672 144.953 104.992V94.574C144.957 93.894 145.631 93.325 146.461 93.3Z" fill="url(#paint80_radial_2_700)"/>
<path d="M23.9079 153.781C23.8849 154.608 23.3139 155.286 22.6299 155.286H12.2169C11.5329 155.293 10.9999 154.452 11.0259 153.414C11.0449 152.37 11.6369 151.564 12.3299 151.606L22.7269 152.199C23.3979 152.248 23.9179 152.953 23.9079 153.781Z" fill="url(#paint81_radial_2_700)"/>
<path d="M24.077 150.768C24.014 151.596 23.408 152.238 22.728 152.199L12.331 151.606C11.649 151.571 11.159 150.702 11.238 149.658C11.301 148.617 11.982 147.849 12.654 147.933L23 149.126C23.682 149.214 24.12 149.94 24.077 150.768Z" fill="url(#paint82_radial_2_700)"/>
<path d="M24.415 147.775C24.312 148.595 23.679 149.203 23 149.126L12.653 147.932C11.974 147.855 11.529 146.958 11.665 145.925C11.801 144.892 12.526 144.162 13.187 144.281L23.447 146.075C24.126 146.201 24.522 146.955 24.415 147.775Z" fill="url(#paint83_radial_2_700)"/>
<path d="M24.927 144.811C24.78 145.624 24.119 146.194 23.447 146.075L13.187 144.281C12.513 144.169 12.113 143.244 12.302 142.221C12.536 141.201 13.266 140.507 13.929 140.671L24.066 143.062C24.728 143.219 25.115 144.005 24.927 144.811Z" fill="url(#paint84_radial_2_700)"/>
<path d="M25.6289 141.885C25.3929 142.678 24.7419 143.215 24.0669 143.062L13.9299 140.671C13.2749 140.517 12.8899 139.561 13.1789 138.555C13.4639 137.553 14.2249 136.9 14.8759 137.102L24.8579 140.084C25.5079 140.287 25.8559 141.09 25.6289 141.885Z" fill="url(#paint85_radial_2_700)"/>
<path d="M26.4939 139.005C26.2149 139.783 25.5079 140.279 24.8569 140.084L14.8749 137.102C14.2169 136.907 13.9129 135.936 14.2639 134.952C14.5959 133.964 15.3879 133.353 16.0289 133.59L25.8149 137.155C26.4559 137.392 26.7599 138.219 26.4939 139.005Z" fill="url(#paint86_radial_2_700)"/>
<path d="M27.5239 136.174C27.2239 136.949 26.4469 137.382 25.8149 137.155L16.0289 133.59C15.3739 133.36 15.1679 132.389 15.5509 131.418C15.9239 130.441 16.7639 129.885 17.3959 130.165L26.9599 134.295C27.5729 134.568 27.8179 135.402 27.5239 136.174Z" fill="url(#paint87_radial_2_700)"/>
<path d="M28.712 133.416C28.375 134.167 27.588 134.565 26.961 134.296L17.397 130.166C16.77 129.901 16.606 128.909 17.039 127.963C17.453 127.003 18.369 126.521 18.966 126.828L28.271 131.51C28.888 131.824 29.038 132.651 28.712 133.416Z" fill="url(#paint88_radial_2_700)"/>
<path d="M30.057 130.72C29.682 131.456 28.88 131.813 28.269 131.509L18.964 126.827C18.353 126.52 18.241 125.525 18.72 124.596C19.226 123.685 20.132 123.234 20.717 123.576L29.733 128.796C30.326 129.142 30.461 129.997 30.057 130.72Z" fill="url(#paint89_radial_2_700)"/>
<path d="M31.569 128.116C31.124 128.814 30.335 129.135 29.734 128.797L20.718 123.577C20.135 123.246 20.051 122.222 20.608 121.346C21.17 120.463 22.087 120.058 22.656 120.438L31.351 126.171C31.922 126.552 32.018 127.424 31.569 128.116Z" fill="url(#paint90_radial_2_700)"/>
<path d="M33.234 125.605C32.74 126.272 31.923 126.541 31.351 126.171L22.656 120.438C22.083 120.064 22.068 119.045 22.684 118.207C23.288 117.355 24.222 116.999 24.765 117.414L33.116 123.639C33.659 124.052 33.713 124.935 33.234 125.605Z" fill="url(#paint91_radial_2_700)"/>
<path d="M35.033 123.189C34.525 123.845 33.6569 124.037 33.1159 123.639L24.765 117.414C24.21 117.002 24.29 116.014 24.933 115.19C25.254 114.785 25.652 114.502 26.035 114.377C26.429 114.269 26.8 114.311 27.061 114.527L35.037 121.227C35.297 121.447 35.421 121.772 35.414 122.124C35.415 122.481 35.291 122.865 35.033 123.189Z" fill="url(#paint92_radial_2_700)"/>
<path d="M36.9679 120.882C36.4269 121.51 35.5609 121.664 35.0359 121.228L27.0599 114.528C26.5349 114.088 26.6619 113.1 27.3449 112.314C28.0199 111.518 29.0329 111.319 29.5179 111.78L37.0919 118.93C37.5949 119.408 37.5009 120.246 36.9679 120.882Z" fill="url(#paint93_radial_2_700)"/>
<path d="M39.0279 118.686C38.4569 119.283 37.5899 119.391 37.0919 118.93L29.5179 111.78C29.0169 111.312 29.1949 110.321 29.9159 109.57C30.6699 108.851 31.6579 108.673 32.1229 109.168L39.2729 116.744C39.7369 117.244 39.6309 118.113 39.0279 118.686Z" fill="url(#paint94_radial_2_700)"/>
<path d="M41.2279 116.622C40.5909 117.156 39.7529 117.251 39.2729 116.744L32.1229 109.168C31.6619 108.686 31.8649 107.674 32.6569 106.996C33.4439 106.319 34.4379 106.19 34.8739 106.717L41.5719 114.688C42.0069 115.212 41.8549 116.081 41.2279 116.622Z" fill="url(#paint95_radial_2_700)"/>
<path d="M43.5389 114.688C43.2109 114.946 42.8279 115.069 42.4689 115.069C42.1209 115.076 41.7919 114.954 41.5719 114.688L34.8739 106.717C34.6539 106.448 34.6109 106.082 34.7279 105.69C34.8479 105.306 35.1329 104.905 35.5419 104.587C36.3609 103.944 37.3519 103.864 37.7629 104.419L43.9859 112.767C44.3879 113.312 44.1899 114.178 43.5389 114.688Z" fill="url(#paint96_radial_2_700)"/>
<path d="M45.952 112.89C45.28 113.368 44.395 113.312 43.985 112.768L37.762 104.42C37.35 103.872 37.704 102.94 38.552 102.336C39.394 101.725 40.411 101.739 40.785 102.308L46.516 111.008C46.889 111.577 46.618 112.394 45.952 112.89Z" fill="url(#paint97_radial_2_700)"/>
<path d="M48.464 111.225C47.768 111.675 46.893 111.577 46.516 111.008L40.785 102.308C40.406 101.742 40.811 100.828 41.689 100.269C42.569 99.707 43.592 99.787 43.923 100.374L49.143 109.392C49.483 109.989 49.16 110.781 48.464 111.225Z" fill="url(#paint98_radial_2_700)"/>
<path d="M51.066 109.709C50.345 110.118 49.486 109.981 49.143 109.392L43.923 100.374C43.581 99.787 44.03 98.88 44.939 98.377C45.869 97.899 46.866 98.007 47.172 98.618L51.85 107.919C52.156 108.536 51.805 109.339 51.066 109.709Z" fill="url(#paint99_radial_2_700)"/>
<path d="M53.758 108.369C52.995 108.69 52.166 108.544 51.85 107.919L47.172 98.618C46.866 98.021 47.348 97.106 48.307 96.694C49.256 96.265 50.245 96.425 50.512 97.057L54.642 106.613C54.907 107.241 54.514 108.027 53.758 108.369Z" fill="url(#paint100_radial_2_700)"/>
<path d="M56.5229 107.182C55.7499 107.472 54.9099 107.227 54.6409 106.613L50.5109 97.057C50.2309 96.421 50.7869 95.58 51.7629 95.207C52.7349 94.826 53.7039 95.029 53.9359 95.682L57.5019 105.472C57.7279 106.106 57.2929 106.882 56.5229 107.182Z" fill="url(#paint101_radial_2_700)"/>
<path d="M59.3499 106.148C58.5659 106.414 57.7389 106.113 57.5029 105.471L53.9369 95.681C53.7009 95.042 54.3089 94.25 55.2999 93.918C56.2829 93.569 57.2539 93.869 57.4449 94.536L60.4299 104.507C60.6189 105.164 60.1279 105.869 59.3499 106.148Z" fill="url(#paint102_radial_2_700)"/>
<path d="M62.2299 105.283C61.4339 105.513 60.6289 105.164 60.4299 104.508L57.4449 94.537C57.2479 93.877 57.8969 93.12 58.9009 92.84C59.9049 92.54 60.8629 92.927 61.0139 93.587L63.4069 103.719C63.5629 104.399 63.0239 105.048 62.2299 105.283Z" fill="url(#paint103_radial_2_700)"/>
<path d="M65.1539 104.581C64.3509 104.773 63.5669 104.385 63.4059 103.719L61.0129 93.587C60.8509 92.92 61.5469 92.19 62.5629 91.956C63.5889 91.771 64.5129 92.173 64.6259 92.839L66.4239 103.104C66.5379 103.774 65.9709 104.431 65.1539 104.581Z" fill="url(#paint104_radial_2_700)"/>
<path d="M68.123 104.075C67.301 104.176 66.5479 103.781 66.4239 103.104L64.626 92.839C64.506 92.179 65.2349 91.453 66.2709 91.317C67.3019 91.184 68.2009 91.631 68.2779 92.308L69.4739 102.657C69.5499 103.334 68.945 103.97 68.123 104.075Z" fill="url(#paint105_radial_2_700)"/>
<path d="M71.1139 103.732C70.2849 103.777 69.5549 103.334 69.4749 102.657L68.2789 92.308C68.1969 91.631 68.9649 90.953 70.0049 90.891C71.0449 90.814 71.9149 91.303 71.9499 91.983L72.5449 102.38C72.5829 103.062 71.9409 103.666 71.1139 103.732Z" fill="url(#paint106_radial_2_700)"/>
<path d="M74.1249 103.565C73.2939 103.575 72.5889 103.055 72.5449 102.381L71.9499 91.984C71.9079 91.293 72.7169 90.699 73.7569 90.682C74.7989 90.654 75.6369 91.191 75.6339 91.869V102.287C75.6309 102.968 74.9539 103.54 74.1249 103.565Z" fill="url(#paint107_radial_2_700)"/>
<path d="M126.544 58.174H94.0449V84.82H126.544V58.174Z" fill="url(#paint108_radial_2_700)"/>
<path d="M141.364 0.634003H79.22V27.28H141.364V0.634003Z" fill="url(#paint109_radial_2_700)"/>
<path d="M153.078 143.279C153.078 147.968 149.274 151.773 144.582 151.773H76.003C71.312 151.773 67.51 147.967 67.51 143.279V87.805C67.51 83.116 71.312 79.311 76.003 79.311H144.582C149.274 79.311 153.078 83.117 153.078 87.805V143.279Z" fill="url(#paint110_radial_2_700)" stroke="#5E689B" stroke-width="3.5751" stroke-miterlimit="10" stroke-linecap="round" stroke-linejoin="round"/>
<path d="M153.287 59.477C153.287 64.19 149.468 68.01 144.753 68.01H75.834C71.119 68.01 67.298 64.19 67.298 59.477V14.369C67.298 9.65901 71.119 5.83301 75.834 5.83301H144.753C149.468 5.83301 153.287 9.65901 153.287 14.369V59.477Z" fill="url(#paint111_radial_2_700)" stroke="#5E689B" stroke-width="3.5751" stroke-miterlimit="10" stroke-linecap="round" stroke-linejoin="round"/>
<path d="M146.05 55.119C146.05 58.921 142.965 62.004 139.16 62.004H81.4249C77.6219 62.004 74.5389 58.921 74.5389 55.119V18.729C74.5389 14.923 77.6219 11.837 81.4249 11.837H139.16C142.965 11.837 146.05 14.923 146.05 18.729V55.119Z" fill="url(#paint112_radial_2_700)"/>
<path d="M101.2 36.923C101.2 42.757 96.471 47.484 90.637 47.484C84.805 47.484 80.078 42.757 80.078 36.923C80.078 31.092 84.805 26.362 90.637 26.362C96.471 26.361 101.2 31.092 101.2 36.923Z" fill="url(#paint113_radial_2_700)"/>
<path d="M140.509 36.923C140.509 42.757 135.78 47.484 129.949 47.484C124.117 47.484 119.388 42.757 119.388 36.923C119.388 31.092 124.117 26.362 129.949 26.362C135.78 26.361 140.509 31.092 140.509 36.923Z" fill="url(#paint114_radial_2_700)"/>
<path d="M105.317 90.423H76.24C75.299 90.423 74.538 89.662 74.538 88.719C74.538 87.783 75.299 87.016 76.24 87.016H105.316C106.255 87.016 107.018 87.784 107.018 88.719C107.018 89.662 106.255 90.423 105.317 90.423Z" fill="url(#paint115_radial_2_700)"/>
<path d="M105.317 99.365H76.24C75.299 99.365 74.538 98.607 74.538 97.661C74.538 96.722 75.299 95.961 76.24 95.961H105.316C106.255 95.961 107.018 96.722 107.018 97.661C107.018 98.607 106.255 99.365 105.317 99.365Z" fill="url(#paint116_radial_2_700)"/>
<path d="M105.317 108.306H76.24C75.299 108.306 74.538 107.545 74.538 106.595C74.538 105.659 75.299 104.898 76.24 104.898H105.316C106.255 104.898 107.018 105.659 107.018 106.595C107.018 107.545 106.255 108.306 105.317 108.306Z" fill="url(#paint117_radial_2_700)"/>
<path d="M105.317 117.244H76.24C75.299 117.244 74.538 116.483 74.538 115.54C74.538 114.601 75.299 113.84 76.24 113.84H105.316C106.255 113.84 107.018 114.601 107.018 115.54C107.018 116.483 106.255 117.244 105.317 117.244Z" fill="url(#paint118_radial_2_700)"/>
<path d="M105.317 126.182H76.24C75.299 126.182 74.538 125.421 74.538 124.485C74.538 123.535 75.299 122.778 76.24 122.778H105.316C106.255 122.778 107.018 123.536 107.018 124.485C107.018 125.421 106.255 126.182 105.317 126.182Z" fill="url(#paint119_radial_2_700)"/>
<path d="M105.317 135.12H76.24C75.299 135.12 74.538 134.359 74.538 133.423C74.538 132.481 75.299 131.72 76.24 131.72H105.316C106.255 131.72 107.018 132.481 107.018 133.423C107.018 134.358 106.255 135.12 105.317 135.12Z" fill="url(#paint120_radial_2_700)"/>
<path d="M105.317 144.057H76.24C75.299 144.057 74.538 143.299 74.538 142.36C74.538 141.418 75.299 140.66 76.24 140.66H105.316C106.255 140.66 107.018 141.418 107.018 142.36C107.018 143.299 106.255 144.057 105.317 144.057Z" fill="url(#paint121_radial_2_700)"/>
<path d="M0.907959 165.34C0.907959 156.703 7.93595 149.674 16.573 149.674C25.214 149.674 32.24 156.702 32.24 165.34H22.483C22.483 162.082 19.831 159.432 16.572 159.432C13.315 159.432 10.6609 162.082 10.6609 165.34H0.907959Z" fill="url(#paint122_radial_2_700)"/>
<path d="M220.759 34.653C218.97 43.105 210.638 48.528 202.187 46.736C193.733 44.945 188.314 36.611 190.105 28.162L199.65 30.187C198.973 33.371 201.02 36.517 204.208 37.187C207.396 37.864 210.538 35.822 211.215 32.634L220.759 34.653Z" fill="url(#paint123_radial_2_700)"/>
<path d="M146.119 197.593C138.45 197.593 132.234 203.811 132.234 211.478H160.004C160.004 203.811 153.787 197.593 146.119 197.593Z" fill="url(#paint124_radial_2_700)"/>
<path d="M74.5389 197.593C66.8699 197.593 60.6539 203.811 60.6539 211.478H88.4239C88.4239 203.811 82.2059 197.593 74.5389 197.593Z" fill="url(#paint125_radial_2_700)"/>
<defs>
<radialGradient id="paint0_radial_2_700" cx="0" cy="0" r="1" gradientUnits="userSpaceOnUse" gradientTransform="translate(82.5487 149.024) scale(4.7459 4.74588)">
<stop stop-color="#9593B0"/>
<stop offset="1" stop-color="#5F889B"/>
</radialGradient>
<radialGradient id="paint1_radial_2_700" cx="0" cy="0" r="1" gradientUnits="userSpaceOnUse" gradientTransform="translate(82.0268 151.117) scale(4.7377 4.7377)">
<stop stop-color="#9593B0"/>
<stop offset="1" stop-color="#5F889B"/>
</radialGradient>
<radialGradient id="paint2_radial_2_700" cx="0" cy="0" r="1" gradientUnits="userSpaceOnUse" gradientTransform="translate(81.5232 153.198) scale(4.7348 4.73481)">
<stop stop-color="#9593B0"/>
<stop offset="1" stop-color="#5F889B"/>
</radialGradient>
<radialGradient id="paint3_radial_2_700" cx="0" cy="0" r="1" gradientUnits="userSpaceOnUse" gradientTransform="translate(81.0371 155.283) scale(4.7314 4.73139)">
<stop stop-color="#9593B0"/>
<stop offset="1" stop-color="#5F889B"/>
</radialGradient>
<radialGradient id="paint4_radial_2_700" cx="0" cy="0" r="1" gradientUnits="userSpaceOnUse" gradientTransform="translate(80.5669 157.368) scale(4.7279 4.7279)">
<stop stop-color="#9593B0"/>
<stop offset="1" stop-color="#5F889B"/>
</radialGradient>
<radialGradient id="paint5_radial_2_700" cx="0" cy="0" r="1" gradientUnits="userSpaceOnUse" gradientTransform="translate(80.1066 159.46) scale(4.7248 4.72478)">
<stop stop-color="#9593B0"/>
<stop offset="1" stop-color="#5F889B"/>
</radialGradient>
<radialGradient id="paint6_radial_2_700" cx="0" cy="0" r="1" gradientUnits="userSpaceOnUse" gradientTransform="translate(79.6679 161.551) scale(4.7232 4.72319)">
<stop stop-color="#9593B0"/>
<stop offset="1" stop-color="#5F889B"/>
</radialGradient>
<radialGradient id="paint7_radial_2_700" cx="0" cy="0" r="1" gradientUnits="userSpaceOnUse" gradientTransform="translate(79.239 163.649) scale(4.72 4.72001)">
<stop stop-color="#9593B0"/>
<stop offset="1" stop-color="#5F889B"/>
</radialGradient>
<radialGradient id="paint8_radial_2_700" cx="0" cy="0" r="1" gradientUnits="userSpaceOnUse" gradientTransform="translate(78.8243 165.748) scale(4.7166 4.71657)">
<stop stop-color="#9593B0"/>
<stop offset="1" stop-color="#5F889B"/>
</radialGradient>
<radialGradient id="paint9_radial_2_700" cx="0" cy="0" r="1" gradientUnits="userSpaceOnUse" gradientTransform="translate(78.4286 167.849) scale(4.7132 4.71323)">
<stop stop-color="#9593B0"/>
<stop offset="1" stop-color="#5F889B"/>
</radialGradient>
<radialGradient id="paint10_radial_2_700" cx="0" cy="0" r="1" gradientUnits="userSpaceOnUse" gradientTransform="translate(78.0429 169.953) scale(4.7107 4.71069)">
<stop stop-color="#9593B0"/>
<stop offset="1" stop-color="#5F889B"/>
</radialGradient>
<radialGradient id="paint11_radial_2_700" cx="0" cy="0" r="1" gradientUnits="userSpaceOnUse" gradientTransform="translate(77.6756 172.058) scale(4.7067 4.70669)">
<stop stop-color="#9593B0"/>
<stop offset="1" stop-color="#5F889B"/>
</radialGradient>
<radialGradient id="paint12_radial_2_700" cx="0" cy="0" r="1" gradientUnits="userSpaceOnUse" gradientTransform="translate(77.3225 174.167) scale(4.7043 4.7043)">
<stop stop-color="#9593B0"/>
<stop offset="1" stop-color="#5F889B"/>
</radialGradient>
<radialGradient id="paint13_radial_2_700" cx="0" cy="0" r="1" gradientUnits="userSpaceOnUse" gradientTransform="translate(76.9834 176.277) scale(4.6995 4.6995)">
<stop stop-color="#9593B0"/>
<stop offset="1" stop-color="#5F889B"/>
</radialGradient>
<radialGradient id="paint14_radial_2_700" cx="0" cy="0" r="1" gradientUnits="userSpaceOnUse" gradientTransform="translate(76.6681 178.393) scale(4.6971 4.69708)">
<stop stop-color="#9593B0"/>
<stop offset="1" stop-color="#5F889B"/>
</radialGradient>
<radialGradient id="paint15_radial_2_700" cx="0" cy="0" r="1" gradientUnits="userSpaceOnUse" gradientTransform="translate(76.3578 180.506) scale(4.6912 4.6912)">
<stop stop-color="#9593B0"/>
<stop offset="1" stop-color="#5F889B"/>
</radialGradient>
<radialGradient id="paint16_radial_2_700" cx="0" cy="0" r="1" gradientUnits="userSpaceOnUse" gradientTransform="translate(76.0829 182.626) scale(4.688 4.68799)">
<stop stop-color="#9593B0"/>
<stop offset="1" stop-color="#5F889B"/>
</radialGradient>
<radialGradient id="paint17_radial_2_700" cx="0" cy="0" r="1" gradientUnits="userSpaceOnUse" gradientTransform="translate(75.8076 184.748) scale(4.6838 4.68379)">
<stop stop-color="#9593B0"/>
<stop offset="1" stop-color="#5F889B"/>
</radialGradient>
<radialGradient id="paint18_radial_2_700" cx="0" cy="0" r="1" gradientUnits="userSpaceOnUse" gradientTransform="translate(75.5724 186.873) scale(4.6787 4.67869)">
<stop stop-color="#9593B0"/>
<stop offset="1" stop-color="#5F889B"/>
</radialGradient>
<radialGradient id="paint19_radial_2_700" cx="0" cy="0" r="1" gradientUnits="userSpaceOnUse" gradientTransform="translate(75.3447 188.998) scale(4.6744 4.67439)">
<stop stop-color="#9593B0"/>
<stop offset="1" stop-color="#5F889B"/>
</radialGradient>
<radialGradient id="paint20_radial_2_700" cx="0" cy="0" r="1" gradientUnits="userSpaceOnUse" gradientTransform="translate(75.1432 191.125) scale(4.668 4.66804)">
<stop stop-color="#9593B0"/>
<stop offset="1" stop-color="#5F889B"/>
</radialGradient>
<radialGradient id="paint21_radial_2_700" cx="0" cy="0" r="1" gradientUnits="userSpaceOnUse" gradientTransform="translate(74.9694 193.258) scale(4.6629 4.6629)">
<stop stop-color="#9593B0"/>
<stop offset="1" stop-color="#5F889B"/>
</radialGradient>
<radialGradient id="paint22_radial_2_700" cx="0" cy="0" r="1" gradientUnits="userSpaceOnUse" gradientTransform="translate(74.8069 195.386) scale(4.6546 4.65461)">
<stop stop-color="#9593B0"/>
<stop offset="1" stop-color="#5F889B"/>
</radialGradient>
<radialGradient id="paint23_radial_2_700" cx="0" cy="0" r="1" gradientUnits="userSpaceOnUse" gradientTransform="translate(74.6928 197.52) scale(4.6482 4.64821)">
<stop stop-color="#9593B0"/>
<stop offset="1" stop-color="#5F889B"/>
</radialGradient>
<radialGradient id="paint24_radial_2_700" cx="0" cy="0" r="1" gradientUnits="userSpaceOnUse" gradientTransform="translate(74.5802 199.654) scale(4.6413 4.64129)">
<stop stop-color="#9593B0"/>
<stop offset="1" stop-color="#5F889B"/>
</radialGradient>
<radialGradient id="paint25_radial_2_700" cx="0" cy="0" r="1" gradientUnits="userSpaceOnUse" gradientTransform="translate(74.528 201.784) scale(4.6324 4.63242)">
<stop stop-color="#9593B0"/>
<stop offset="1" stop-color="#5F889B"/>
</radialGradient>
<radialGradient id="paint26_radial_2_700" cx="0" cy="0" r="1" gradientUnits="userSpaceOnUse" gradientTransform="translate(74.4887 203.926) scale(4.6229 4.62285)">
<stop stop-color="#9593B0"/>
<stop offset="1" stop-color="#5F889B"/>
</radialGradient>
<radialGradient id="paint27_radial_2_700" cx="0" cy="0" r="1" gradientUnits="userSpaceOnUse" gradientTransform="translate(138.038 149.024) scale(4.7458 4.74578)">
<stop stop-color="#9593B0"/>
<stop offset="1" stop-color="#5F889B"/>
</radialGradient>
<radialGradient id="paint28_radial_2_700" cx="0" cy="0" r="1" gradientUnits="userSpaceOnUse" gradientTransform="translate(138.559 151.117) scale(4.7381 4.73809)">
<stop stop-color="#9593B0"/>
<stop offset="1" stop-color="#5F889B"/>
</radialGradient>
<radialGradient id="paint29_radial_2_700" cx="0" cy="0" r="1" gradientUnits="userSpaceOnUse" gradientTransform="translate(139.063 153.198) scale(4.73519 4.73521)">
<stop stop-color="#9593B0"/>
<stop offset="1" stop-color="#5F889B"/>
</radialGradient>
<radialGradient id="paint30_radial_2_700" cx="0" cy="0" r="1" gradientUnits="userSpaceOnUse" gradientTransform="translate(139.549 155.283) scale(4.7323 4.73229)">
<stop stop-color="#9593B0"/>
<stop offset="1" stop-color="#5F889B"/>
</radialGradient>
<radialGradient id="paint31_radial_2_700" cx="0" cy="0" r="1" gradientUnits="userSpaceOnUse" gradientTransform="translate(140.019 157.368) scale(4.7287 4.7287)">
<stop stop-color="#9593B0"/>
<stop offset="1" stop-color="#5F889B"/>
</radialGradient>
<radialGradient id="paint32_radial_2_700" cx="0" cy="0" r="1" gradientUnits="userSpaceOnUse" gradientTransform="translate(140.479 159.46) scale(4.72521 4.72521)">
<stop stop-color="#9593B0"/>
<stop offset="1" stop-color="#5F889B"/>
</radialGradient>
<radialGradient id="paint33_radial_2_700" cx="0" cy="0" r="1" gradientUnits="userSpaceOnUse" gradientTransform="translate(140.918 161.552) scale(4.72251 4.72249)">
<stop stop-color="#9593B0"/>
<stop offset="1" stop-color="#5F889B"/>
</radialGradient>
<radialGradient id="paint34_radial_2_700" cx="0" cy="0" r="1" gradientUnits="userSpaceOnUse" gradientTransform="translate(141.347 163.649) scale(4.7194 4.71941)">
<stop stop-color="#9593B0"/>
<stop offset="1" stop-color="#5F889B"/>
</radialGradient>
<radialGradient id="paint35_radial_2_700" cx="0" cy="0" r="1" gradientUnits="userSpaceOnUse" gradientTransform="translate(141.762 165.748) scale(4.7166 4.71658)">
<stop stop-color="#9593B0"/>
<stop offset="1" stop-color="#5F889B"/>
</radialGradient>
<radialGradient id="paint36_radial_2_700" cx="0" cy="0" r="1" gradientUnits="userSpaceOnUse" gradientTransform="translate(142.158 167.849) scale(4.7142 4.71418)">
<stop stop-color="#9593B0"/>
<stop offset="1" stop-color="#5F889B"/>
</radialGradient>
<radialGradient id="paint37_radial_2_700" cx="0" cy="0" r="1" gradientUnits="userSpaceOnUse" gradientTransform="translate(142.542 169.953) scale(4.7112 4.71119)">
<stop stop-color="#9593B0"/>
<stop offset="1" stop-color="#5F889B"/>
</radialGradient>
<radialGradient id="paint38_radial_2_700" cx="0" cy="0" r="1" gradientUnits="userSpaceOnUse" gradientTransform="translate(142.911 172.058) scale(4.7064 4.70639)">
<stop stop-color="#9593B0"/>
<stop offset="1" stop-color="#5F889B"/>
</radialGradient>
<radialGradient id="paint39_radial_2_700" cx="0" cy="0" r="1" gradientUnits="userSpaceOnUse" gradientTransform="translate(143.264 174.167) scale(4.7043 4.70433)">
<stop stop-color="#9593B0"/>
<stop offset="1" stop-color="#5F889B"/>
</radialGradient>
<radialGradient id="paint40_radial_2_700" cx="0" cy="0" r="1" gradientUnits="userSpaceOnUse" gradientTransform="translate(143.601 176.277) scale(4.6996)">
<stop stop-color="#9593B0"/>
<stop offset="1" stop-color="#5F889B"/>
</radialGradient>
<radialGradient id="paint41_radial_2_700" cx="0" cy="0" r="1" gradientUnits="userSpaceOnUse" gradientTransform="translate(143.918 178.393) scale(4.697 4.69701)">
<stop stop-color="#9593B0"/>
<stop offset="1" stop-color="#5F889B"/>
</radialGradient>
<radialGradient id="paint42_radial_2_700" cx="0" cy="0" r="1" gradientUnits="userSpaceOnUse" gradientTransform="translate(144.227 180.506) scale(4.6913 4.6913)">
<stop stop-color="#9593B0"/>
<stop offset="1" stop-color="#5F889B"/>
</radialGradient>
<radialGradient id="paint43_radial_2_700" cx="0" cy="0" r="1" gradientUnits="userSpaceOnUse" gradientTransform="translate(144.504 182.626) scale(4.6884 4.6884)">
<stop stop-color="#9593B0"/>
<stop offset="1" stop-color="#5F889B"/>
</radialGradient>
<radialGradient id="paint44_radial_2_700" cx="0" cy="0" r="1" gradientUnits="userSpaceOnUse" gradientTransform="translate(144.777 184.748) scale(4.6848 4.68479)">
<stop stop-color="#9593B0"/>
<stop offset="1" stop-color="#5F889B"/>
</radialGradient>
<radialGradient id="paint45_radial_2_700" cx="0" cy="0" r="1" gradientUnits="userSpaceOnUse" gradientTransform="translate(145.013 186.873) scale(4.6793 4.6793)">
<stop stop-color="#9593B0"/>
<stop offset="1" stop-color="#5F889B"/>
</radialGradient>
<radialGradient id="paint46_radial_2_700" cx="0" cy="0" r="1" gradientUnits="userSpaceOnUse" gradientTransform="translate(145.241 188.998) scale(4.67381 4.67376)">
<stop stop-color="#9593B0"/>
<stop offset="1" stop-color="#5F889B"/>
</radialGradient>
<radialGradient id="paint47_radial_2_700" cx="0" cy="0" r="1" gradientUnits="userSpaceOnUse" gradientTransform="translate(145.441 191.125) scale(4.66759 4.66763)">
<stop stop-color="#9593B0"/>
<stop offset="1" stop-color="#5F889B"/>
</radialGradient>
<radialGradient id="paint48_radial_2_700" cx="0" cy="0" r="1" gradientUnits="userSpaceOnUse" gradientTransform="translate(145.616 193.258) scale(4.6624 4.6624)">
<stop stop-color="#9593B0"/>
<stop offset="1" stop-color="#5F889B"/>
</radialGradient>
<radialGradient id="paint49_radial_2_700" cx="0" cy="0" r="1" gradientUnits="userSpaceOnUse" gradientTransform="translate(145.78 195.386) scale(4.65519 4.65521)">
<stop stop-color="#9593B0"/>
<stop offset="1" stop-color="#5F889B"/>
</radialGradient>
<radialGradient id="paint50_radial_2_700" cx="0" cy="0" r="1" gradientUnits="userSpaceOnUse" gradientTransform="translate(145.893 197.52) scale(4.6487 4.6487)">
<stop stop-color="#9593B0"/>
<stop offset="1" stop-color="#5F889B"/>
</radialGradient>
<radialGradient id="paint51_radial_2_700" cx="0" cy="0" r="1" gradientUnits="userSpaceOnUse" gradientTransform="translate(146.007 199.654) scale(4.6406 4.6406)">
<stop stop-color="#9593B0"/>
<stop offset="1" stop-color="#5F889B"/>
</radialGradient>
<radialGradient id="paint52_radial_2_700" cx="0" cy="0" r="1" gradientUnits="userSpaceOnUse" gradientTransform="translate(146.059 201.784) scale(4.6318 4.63176)">
<stop stop-color="#9593B0"/>
<stop offset="1" stop-color="#5F889B"/>
</radialGradient>
<radialGradient id="paint53_radial_2_700" cx="0" cy="0" r="1" gradientUnits="userSpaceOnUse" gradientTransform="translate(146.099 203.926) scale(4.62269 4.6227)">
<stop stop-color="#9593B0"/>
<stop offset="1" stop-color="#5F889B"/>
</radialGradient>
<radialGradient id="paint54_radial_2_700" cx="0" cy="0" r="1" gradientUnits="userSpaceOnUse" gradientTransform="translate(203.12 43.4188) scale(4.7367 4.73669)">
<stop stop-color="#9593B0"/>
<stop offset="1" stop-color="#5F889B"/>
</radialGradient>
<radialGradient id="paint55_radial_2_700" cx="0" cy="0" r="1" gradientUnits="userSpaceOnUse" gradientTransform="translate(202.932 46.7996) scale(4.7875 4.78751)">
<stop stop-color="#9593B0"/>
<stop offset="1" stop-color="#5F889B"/>
</radialGradient>
<radialGradient id="paint56_radial_2_700" cx="0" cy="0" r="1" gradientUnits="userSpaceOnUse" gradientTransform="translate(202.549 50.1595) scale(4.8399)">
<stop stop-color="#9593B0"/>
<stop offset="1" stop-color="#5F889B"/>
</radialGradient>
<radialGradient id="paint57_radial_2_700" cx="0" cy="0" r="1" gradientUnits="userSpaceOnUse" gradientTransform="translate(201.97 53.4928) scale(4.8923 4.89229)">
<stop stop-color="#9593B0"/>
<stop offset="1" stop-color="#5F889B"/>
</radialGradient>
<radialGradient id="paint58_radial_2_700" cx="0" cy="0" r="1" gradientUnits="userSpaceOnUse" gradientTransform="translate(201.196 56.7877) scale(4.9428 4.94281)">
<stop stop-color="#9593B0"/>
<stop offset="1" stop-color="#5F889B"/>
</radialGradient>
<radialGradient id="paint59_radial_2_700" cx="0" cy="0" r="1" gradientUnits="userSpaceOnUse" gradientTransform="translate(200.232 60.0304) scale(4.9866 4.98659)">
<stop stop-color="#9593B0"/>
<stop offset="1" stop-color="#5F889B"/>
</radialGradient>
<radialGradient id="paint60_radial_2_700" cx="0" cy="0" r="1" gradientUnits="userSpaceOnUse" gradientTransform="translate(199.081 63.2091) scale(5.0217 5.0217)">
<stop stop-color="#9593B0"/>
<stop offset="1" stop-color="#5F889B"/>
</radialGradient>
<radialGradient id="paint61_radial_2_700" cx="0" cy="0" r="1" gradientUnits="userSpaceOnUse" gradientTransform="translate(197.747 66.3059) scale(5.0548 5.0548)">
<stop stop-color="#9593B0"/>
<stop offset="1" stop-color="#5F889B"/>
</radialGradient>
<radialGradient id="paint62_radial_2_700" cx="0" cy="0" r="1" gradientUnits="userSpaceOnUse" gradientTransform="translate(196.23 69.3236) scale(5.08971 5.0897)">
<stop stop-color="#9593B0"/>
<stop offset="1" stop-color="#5F889B"/>
</radialGradient>
<radialGradient id="paint63_radial_2_700" cx="0" cy="0" r="1" gradientUnits="userSpaceOnUse" gradientTransform="translate(194.543 72.2471) scale(5.1179 5.1179)">
<stop stop-color="#9593B0"/>
<stop offset="1" stop-color="#5F889B"/>
</radialGradient>
<radialGradient id="paint64_radial_2_700" cx="0" cy="0" r="1" gradientUnits="userSpaceOnUse" gradientTransform="translate(192.693 75.0704) scale(5.13891 5.1389)">
<stop stop-color="#9593B0"/>
<stop offset="1" stop-color="#5F889B"/>
</radialGradient>
<radialGradient id="paint65_radial_2_700" cx="0" cy="0" r="1" gradientUnits="userSpaceOnUse" gradientTransform="translate(190.683 77.7783) scale(5.1502 5.1502)">
<stop stop-color="#9593B0"/>
<stop offset="1" stop-color="#5F889B"/>
</radialGradient>
<radialGradient id="paint66_radial_2_700" cx="0" cy="0" r="1" gradientUnits="userSpaceOnUse" gradientTransform="translate(188.507 80.3578) scale(5.1603 5.1603)">
<stop stop-color="#9593B0"/>
<stop offset="1" stop-color="#5F889B"/>
</radialGradient>
<radialGradient id="paint67_radial_2_700" cx="0" cy="0" r="1" gradientUnits="userSpaceOnUse" gradientTransform="translate(186.189 82.8115) scale(5.16391 5.1639)">
<stop stop-color="#9593B0"/>
<stop offset="1" stop-color="#5F889B"/>
</radialGradient>
<radialGradient id="paint68_radial_2_700" cx="0" cy="0" r="1" gradientUnits="userSpaceOnUse" gradientTransform="translate(183.737 85.1287) scale(5.16019 5.1602)">
<stop stop-color="#9593B0"/>
<stop offset="1" stop-color="#5F889B"/>
</radialGradient>
<radialGradient id="paint69_radial_2_700" cx="0" cy="0" r="1" gradientUnits="userSpaceOnUse" gradientTransform="translate(181.158 87.3033) scale(5.1512 5.15119)">
<stop stop-color="#9593B0"/>
<stop offset="1" stop-color="#5F889B"/>
</radialGradient>
<radialGradient id="paint70_radial_2_700" cx="0" cy="0" r="1" gradientUnits="userSpaceOnUse" gradientTransform="translate(178.45 89.3143) scale(5.1394)">
<stop stop-color="#9593B0"/>
<stop offset="1" stop-color="#5F889B"/>
</radialGradient>
<radialGradient id="paint71_radial_2_700" cx="0" cy="0" r="1" gradientUnits="userSpaceOnUse" gradientTransform="translate(175.626 91.1667) scale(5.11809 5.1181)">
<stop stop-color="#9593B0"/>
<stop offset="1" stop-color="#5F889B"/>
</radialGradient>
<radialGradient id="paint72_radial_2_700" cx="0" cy="0" r="1" gradientUnits="userSpaceOnUse" gradientTransform="translate(172.701 92.8517) scale(5.0895 5.0895)">
<stop stop-color="#9593B0"/>
<stop offset="1" stop-color="#5F889B"/>
</radialGradient>
<radialGradient id="paint73_radial_2_700" cx="0" cy="0" r="1" gradientUnits="userSpaceOnUse" gradientTransform="translate(169.685 94.3684) scale(5.05549 5.0555)">
<stop stop-color="#9593B0"/>
<stop offset="1" stop-color="#5F889B"/>
</radialGradient>
<radialGradient id="paint74_radial_2_700" cx="0" cy="0" r="1" gradientUnits="userSpaceOnUse" gradientTransform="translate(166.586 95.7036) scale(5.02061 5.0206)">
<stop stop-color="#9593B0"/>
<stop offset="1" stop-color="#5F889B"/>
</radialGradient>
<radialGradient id="paint75_radial_2_700" cx="0" cy="0" r="1" gradientUnits="userSpaceOnUse" gradientTransform="translate(163.407 96.855) scale(4.98569 4.9857)">
<stop stop-color="#9593B0"/>
<stop offset="1" stop-color="#5F889B"/>
</radialGradient>
<radialGradient id="paint76_radial_2_700" cx="0" cy="0" r="1" gradientUnits="userSpaceOnUse" gradientTransform="translate(160.164 97.8188) scale(4.9426)">
<stop stop-color="#9593B0"/>
<stop offset="1" stop-color="#5F889B"/>
</radialGradient>
<radialGradient id="paint77_radial_2_700" cx="0" cy="0" r="1" gradientUnits="userSpaceOnUse" gradientTransform="translate(156.872 98.592) scale(4.89182 4.8918)">
<stop stop-color="#9593B0"/>
<stop offset="1" stop-color="#5F889B"/>
</radialGradient>
<radialGradient id="paint78_radial_2_700" cx="0" cy="0" r="1" gradientUnits="userSpaceOnUse" gradientTransform="translate(153.539 99.1703) scale(4.83929 4.8393)">
<stop stop-color="#9593B0"/>
<stop offset="1" stop-color="#5F889B"/>
</radialGradient>
<radialGradient id="paint79_radial_2_700" cx="0" cy="0" r="1" gradientUnits="userSpaceOnUse" gradientTransform="translate(150.176 99.5539) scale(4.78961 4.7896)">
<stop stop-color="#9593B0"/>
<stop offset="1" stop-color="#5F889B"/>
</radialGradient>
<radialGradient id="paint80_radial_2_700" cx="0" cy="0" r="1" gradientUnits="userSpaceOnUse" gradientTransform="translate(146.795 99.7421) scale(4.73781 4.7378)">
<stop stop-color="#9593B0"/>
<stop offset="1" stop-color="#5F889B"/>
</radialGradient>
<radialGradient id="paint81_radial_2_700" cx="0" cy="0" r="1" gradientUnits="userSpaceOnUse" gradientTransform="translate(17.4664 153.445) scale(4.737 4.73703)">
<stop stop-color="#9593B0"/>
<stop offset="1" stop-color="#5F889B"/>
</radialGradient>
<radialGradient id="paint82_radial_2_700" cx="0" cy="0" r="1" gradientUnits="userSpaceOnUse" gradientTransform="translate(17.6544 150.063) scale(4.7881 4.78811)">
<stop stop-color="#9593B0"/>
<stop offset="1" stop-color="#5F889B"/>
</radialGradient>
<radialGradient id="paint83_radial_2_700" cx="0" cy="0" r="1" gradientUnits="userSpaceOnUse" gradientTransform="translate(18.0365 146.701) scale(4.8387)">
<stop stop-color="#9593B0"/>
<stop offset="1" stop-color="#5F889B"/>
</radialGradient>
<radialGradient id="paint84_radial_2_700" cx="0" cy="0" r="1" gradientUnits="userSpaceOnUse" gradientTransform="translate(18.615 143.369) scale(4.8914 4.89139)">
<stop stop-color="#9593B0"/>
<stop offset="1" stop-color="#5F889B"/>
</radialGradient>
<radialGradient id="paint85_radial_2_700" cx="0" cy="0" r="1" gradientUnits="userSpaceOnUse" gradientTransform="translate(19.3894 140.077) scale(4.9431 4.94309)">
<stop stop-color="#9593B0"/>
<stop offset="1" stop-color="#5F889B"/>
</radialGradient>
<radialGradient id="paint86_radial_2_700" cx="0" cy="0" r="1" gradientUnits="userSpaceOnUse" gradientTransform="translate(20.3535 136.833) scale(4.9873 4.9873)">
<stop stop-color="#9593B0"/>
<stop offset="1" stop-color="#5F889B"/>
</radialGradient>
<radialGradient id="paint87_radial_2_700" cx="0" cy="0" r="1" gradientUnits="userSpaceOnUse" gradientTransform="translate(21.5037 133.654) scale(5.0216 5.0216)">
<stop stop-color="#9593B0"/>
<stop offset="1" stop-color="#5F889B"/>
</radialGradient>
<radialGradient id="paint88_radial_2_700" cx="0" cy="0" r="1" gradientUnits="userSpaceOnUse" gradientTransform="translate(22.8378 130.557) scale(5.0553 5.0553)">
<stop stop-color="#9593B0"/>
<stop offset="1" stop-color="#5F889B"/>
</radialGradient>
<radialGradient id="paint89_radial_2_700" cx="0" cy="0" r="1" gradientUnits="userSpaceOnUse" gradientTransform="translate(24.3563 127.54) scale(5.0902 5.0902)">
<stop stop-color="#9593B0"/>
<stop offset="1" stop-color="#5F889B"/>
</radialGradient>
<radialGradient id="paint90_radial_2_700" cx="0" cy="0" r="1" gradientUnits="userSpaceOnUse" gradientTransform="translate(26.0419 124.614) scale(5.1185 5.1185)">
<stop stop-color="#9593B0"/>
<stop offset="1" stop-color="#5F889B"/>
</radialGradient>
<radialGradient id="paint91_radial_2_700" cx="0" cy="0" r="1" gradientUnits="userSpaceOnUse" gradientTransform="translate(27.8923 121.79) scale(5.13899 5.139)">
<stop stop-color="#9593B0"/>
<stop offset="1" stop-color="#5F889B"/>
</radialGradient>
<radialGradient id="paint92_radial_2_700" cx="0" cy="0" r="1" gradientUnits="userSpaceOnUse" gradientTransform="translate(29.9039 119.083) scale(5.1498 5.1498)">
<stop stop-color="#9593B0"/>
<stop offset="1" stop-color="#5F889B"/>
</radialGradient>
<radialGradient id="paint93_radial_2_700" cx="0" cy="0" r="1" gradientUnits="userSpaceOnUse" gradientTransform="translate(32.0795 116.506) scale(5.1601 5.1601)">
<stop stop-color="#9593B0"/>
<stop offset="1" stop-color="#5F889B"/>
</radialGradient>
<radialGradient id="paint94_radial_2_700" cx="0" cy="0" r="1" gradientUnits="userSpaceOnUse" gradientTransform="translate(34.3973 114.052) scale(5.1638)">
<stop stop-color="#9593B0"/>
<stop offset="1" stop-color="#5F889B"/>
</radialGradient>
<radialGradient id="paint95_radial_2_700" cx="0" cy="0" r="1" gradientUnits="userSpaceOnUse" gradientTransform="translate(36.8492 111.735) scale(5.1597)">
<stop stop-color="#9593B0"/>
<stop offset="1" stop-color="#5F889B"/>
</radialGradient>
<radialGradient id="paint96_radial_2_700" cx="0" cy="0" r="1" gradientUnits="userSpaceOnUse" gradientTransform="translate(39.4285 109.56) scale(5.1506 5.1506)">
<stop stop-color="#9593B0"/>
<stop offset="1" stop-color="#5F889B"/>
</radialGradient>
<radialGradient id="paint97_radial_2_700" cx="0" cy="0" r="1" gradientUnits="userSpaceOnUse" gradientTransform="translate(42.1369 107.547) scale(5.1386 5.1386)">
<stop stop-color="#9593B0"/>
<stop offset="1" stop-color="#5F889B"/>
</radialGradient>
<radialGradient id="paint98_radial_2_700" cx="0" cy="0" r="1" gradientUnits="userSpaceOnUse" gradientTransform="translate(44.9608 105.698) scale(5.1188 5.1188)">
<stop stop-color="#9593B0"/>
<stop offset="1" stop-color="#5F889B"/>
</radialGradient>
<radialGradient id="paint99_radial_2_700" cx="0" cy="0" r="1" gradientUnits="userSpaceOnUse" gradientTransform="translate(47.8846 104.011) scale(5.0899)">
<stop stop-color="#9593B0"/>
<stop offset="1" stop-color="#5F889B"/>
</radialGradient>
<radialGradient id="paint100_radial_2_700" cx="0" cy="0" r="1" gradientUnits="userSpaceOnUse" gradientTransform="translate(50.9025 102.494) scale(5.0543)">
<stop stop-color="#9593B0"/>
<stop offset="1" stop-color="#5F889B"/>
</radialGradient>
<radialGradient id="paint101_radial_2_700" cx="0" cy="0" r="1" gradientUnits="userSpaceOnUse" gradientTransform="translate(54.0005 101.159) scale(5.0216 5.0216)">
<stop stop-color="#9593B0"/>
<stop offset="1" stop-color="#5F889B"/>
</radialGradient>
<radialGradient id="paint102_radial_2_700" cx="0" cy="0" r="1" gradientUnits="userSpaceOnUse" gradientTransform="translate(57.178 100.008) scale(4.9868)">
<stop stop-color="#9593B0"/>
<stop offset="1" stop-color="#5F889B"/>
</radialGradient>
<radialGradient id="paint103_radial_2_700" cx="0" cy="0" r="1" gradientUnits="userSpaceOnUse" gradientTransform="translate(60.4216 99.045) scale(4.94319 4.9432)">
<stop stop-color="#9593B0"/>
<stop offset="1" stop-color="#5F889B"/>
</radialGradient>
<radialGradient id="paint104_radial_2_700" cx="0" cy="0" r="1" gradientUnits="userSpaceOnUse" gradientTransform="translate(63.7144 98.2705) scale(4.8922 4.8922)">
<stop stop-color="#9593B0"/>
<stop offset="1" stop-color="#5F889B"/>
</radialGradient>
<radialGradient id="paint105_radial_2_700" cx="0" cy="0" r="1" gradientUnits="userSpaceOnUse" gradientTransform="translate(67.0473 97.6921) scale(4.84039 4.8404)">
<stop stop-color="#9593B0"/>
<stop offset="1" stop-color="#5F889B"/>
</radialGradient>
<radialGradient id="paint106_radial_2_700" cx="0" cy="0" r="1" gradientUnits="userSpaceOnUse" gradientTransform="translate(70.4095 97.3096) scale(4.78859 4.7886)">
<stop stop-color="#9593B0"/>
<stop offset="1" stop-color="#5F889B"/>
</radialGradient>
<radialGradient id="paint107_radial_2_700" cx="0" cy="0" r="1" gradientUnits="userSpaceOnUse" gradientTransform="translate(73.7905 97.1229) scale(4.73791 4.7379)">
<stop stop-color="#9593B0"/>
<stop offset="1" stop-color="#5F889B"/>
</radialGradient>
<radialGradient id="paint108_radial_2_700" cx="0" cy="0" r="1" gradientUnits="userSpaceOnUse" gradientTransform="translate(110.294 71.4969) scale(14.8585 14.8585)">
<stop stop-color="#9593B0"/>
<stop offset="1" stop-color="#5F889B"/>
</radialGradient>
<radialGradient id="paint109_radial_2_700" cx="0" cy="0" r="1" gradientUnits="userSpaceOnUse" gradientTransform="translate(110.292 13.9565) scale(23.9058 23.9058)">
<stop stop-color="#9593B0"/>
<stop offset="1" stop-color="#5F889B"/>
</radialGradient>
<radialGradient id="paint110_radial_2_700" cx="0" cy="0" r="1" gradientUnits="userSpaceOnUse" gradientTransform="translate(110.294 115.542) scale(51.8139 51.8139)">
<stop stop-color="#CCECFC"/>
<stop offset="0.9839" stop-color="#5FCCF5"/>
</radialGradient>
<radialGradient id="paint111_radial_2_700" cx="0" cy="0" r="1" gradientUnits="userSpaceOnUse" gradientTransform="translate(110.292 36.9207) scale(49.8727 49.8727)">
<stop stop-color="#CCECFC"/>
<stop offset="0.9839" stop-color="#5FCCF5"/>
</radialGradient>
<radialGradient id="paint112_radial_2_700" cx="0" cy="0" r="1" gradientUnits="userSpaceOnUse" gradientTransform="translate(110.294 36.9206) scale(42.5563 27.6829)">
<stop stop-color="white"/>
<stop offset="0.3425" stop-color="#F5F8FA"/>
<stop offset="0.6414" stop-color="#E1ECF1"/>
<stop offset="0.9232" stop-color="#C5DAE5"/>
<stop offset="1" stop-color="#BBD4E0"/>
</radialGradient>
<radialGradient id="paint113_radial_2_700" cx="0" cy="0" r="1" gradientUnits="userSpaceOnUse" gradientTransform="translate(90.6389 36.9225) scale(10.5612)">
<stop stop-color="#6289B8"/>
<stop offset="0.1556" stop-color="#6183B3"/>
<stop offset="1" stop-color="#5E689B"/>
</radialGradient>
<radialGradient id="paint114_radial_2_700" cx="0" cy="0" r="1" gradientUnits="userSpaceOnUse" gradientTransform="translate(129.949 36.9225) scale(10.5608 10.5608)">
<stop stop-color="#6289B8"/>
<stop offset="0.1556" stop-color="#6183B3"/>
<stop offset="1" stop-color="#5E689B"/>
</radialGradient>
<radialGradient id="paint115_radial_2_700" cx="0" cy="0" r="1" gradientUnits="userSpaceOnUse" gradientTransform="translate(90.7785 88.7197) scale(11.5463 11.5463)">
<stop stop-color="#6289B8"/>
<stop offset="0.1556" stop-color="#6183B3"/>
<stop offset="1" stop-color="#5E689B"/>
</radialGradient>
<radialGradient id="paint116_radial_2_700" cx="0" cy="0" r="1" gradientUnits="userSpaceOnUse" gradientTransform="translate(90.7785 97.6627) scale(11.5462 11.5462)">
<stop stop-color="#6289B8"/>
<stop offset="0.1556" stop-color="#6183B3"/>
<stop offset="1" stop-color="#5E689B"/>
</radialGradient>
<radialGradient id="paint117_radial_2_700" cx="0" cy="0" r="1" gradientUnits="userSpaceOnUse" gradientTransform="translate(90.7785 106.602) scale(11.5463 11.5463)">
<stop stop-color="#6289B8"/>
<stop offset="0.1556" stop-color="#6183B3"/>
<stop offset="1" stop-color="#5E689B"/>
</radialGradient>
<radialGradient id="paint118_radial_2_700" cx="0" cy="0" r="1" gradientUnits="userSpaceOnUse" gradientTransform="translate(90.7785 115.542) scale(11.5462 11.5462)">
<stop stop-color="#6289B8"/>
<stop offset="0.1556" stop-color="#6183B3"/>
<stop offset="1" stop-color="#5E689B"/>
</radialGradient>
<radialGradient id="paint119_radial_2_700" cx="0" cy="0" r="1" gradientUnits="userSpaceOnUse" gradientTransform="translate(90.7785 124.48) scale(11.5462 11.5462)">
<stop stop-color="#6289B8"/>
<stop offset="0.1556" stop-color="#6183B3"/>
<stop offset="1" stop-color="#5E689B"/>
</radialGradient>
<radialGradient id="paint120_radial_2_700" cx="0" cy="0" r="1" gradientUnits="userSpaceOnUse" gradientTransform="translate(90.7785 133.419) scale(11.546 11.546)">
<stop stop-color="#6289B8"/>
<stop offset="0.1556" stop-color="#6183B3"/>
<stop offset="1" stop-color="#5E689B"/>
</radialGradient>
<radialGradient id="paint121_radial_2_700" cx="0" cy="0" r="1" gradientUnits="userSpaceOnUse" gradientTransform="translate(90.7785 142.359) scale(11.5459 11.5459)">
<stop stop-color="#6289B8"/>
<stop offset="0.1556" stop-color="#6183B3"/>
<stop offset="1" stop-color="#5E689B"/>
</radialGradient>
<radialGradient id="paint122_radial_2_700" cx="0" cy="0" r="1" gradientUnits="userSpaceOnUse" gradientTransform="translate(16.5748 157.507) scale(12.3853)">
<stop stop-color="#6289B8"/>
<stop offset="0.1556" stop-color="#6183B3"/>
<stop offset="1" stop-color="#5E689B"/>
</radialGradient>
<radialGradient id="paint123_radial_2_700" cx="0" cy="0" r="1" gradientUnits="userSpaceOnUse" gradientTransform="translate(205.261 37.6206) scale(12.8382 12.8382)">
<stop stop-color="#6289B8"/>
<stop offset="0.1556" stop-color="#6183B3"/>
<stop offset="1" stop-color="#5E689B"/>
</radialGradient>
<radialGradient id="paint124_radial_2_700" cx="0" cy="0" r="1" gradientUnits="userSpaceOnUse" gradientTransform="translate(146.12 204.536) scale(10.977 10.977)">
<stop stop-color="#6289B8"/>
<stop offset="0.1556" stop-color="#6183B3"/>
<stop offset="1" stop-color="#5E689B"/>
</radialGradient>
<radialGradient id="paint125_radial_2_700" cx="0" cy="0" r="1" gradientUnits="userSpaceOnUse" gradientTransform="translate(74.5386 204.536) scale(10.9771 10.9771)">
<stop stop-color="#6289B8"/>
<stop offset="0.1556" stop-color="#6183B3"/>
<stop offset="1" stop-color="#5E689B"/>
</radialGradient>
</defs>
</svg>
