<svg width="15" height="14" viewBox="0 0 15 14" fill="none" xmlns="http://www.w3.org/2000/svg">
<path d="M13.4484 5.84247H12.1404C12.0155 5.31635 11.8086 4.81703 11.5242 4.35763L12.4498 3.43347C12.753 3.12854 12.753 2.63736 12.4498 2.33244L11.9 1.78444C11.595 1.47951 11.1037 1.47951 10.7987 1.78444L9.87444 2.70859C9.41453 2.42561 8.91566 2.21876 8.39127 2.09249V0.78638C8.39127 0.356979 8.04197 0.0090332 7.61252 0.0090332H6.83518C6.40573 0.0090332 6.05642 0.356532 6.05642 0.78638V2.09249C5.53383 2.21876 5.03134 2.42561 4.57457 2.70859L3.64898 1.78444C3.34581 1.47951 2.85273 1.47951 2.54956 1.78444L1.99832 2.33244C1.6965 2.63736 1.6965 3.12854 1.99832 3.43347L2.92391 4.35763C2.63955 4.81747 2.43273 5.31635 2.30959 5.84247H1.00146C0.572001 5.84247 0.224121 6.18986 0.224121 6.6197V7.39836C0.224121 7.82776 0.571554 8.17571 1.00146 8.17571H2.30959C2.43453 8.70809 2.64447 9.20555 2.92391 9.65913L1.99832 10.5846C1.6965 10.8864 1.6965 11.3808 1.99832 11.6826L2.54956 12.2337C2.85273 12.5369 3.34581 12.5369 3.64898 12.2337L4.57457 11.3082C5.03134 11.5925 5.53338 11.7994 6.05642 11.9225V13.2305C6.05642 13.6603 6.40573 14.009 6.83518 14.009H7.61252C8.04197 14.009 8.39127 13.6599 8.39127 13.2305V11.9225C8.92193 11.7976 9.42128 11.5876 9.87313 11.3082L10.7987 12.2337C11.1037 12.5387 11.595 12.5387 11.9 12.2337L12.4498 11.6826C12.753 11.3808 12.753 10.8864 12.4498 10.5846L11.5242 9.65913C11.8086 9.20107 12.0155 8.69869 12.1404 8.17571H13.4484C13.8779 8.17571 14.2241 7.82821 14.2241 7.39836V6.6197C14.2241 6.18986 13.8783 5.84247 13.4484 5.84247ZM7.22429 10.1199C5.50557 10.1199 4.112 8.72638 4.112 7.00789C4.112 5.29073 5.50513 3.89784 7.22429 3.89784C8.94345 3.89784 10.3366 5.29118 10.3366 7.00789C10.3361 8.72683 8.943 10.1199 7.22429 10.1199Z" fill="white"/>
</svg>
